<svg width="152" height="65" viewBox="0 0 152 65" fill="none" xmlns="http://www.w3.org/2000/svg">
<mask id="mask0_79_574" style="mask-type:luminance" maskUnits="userSpaceOnUse" x="0" y="0" width="152" height="65">
<path d="M0 0H152V65H0V0Z" fill="white"/>
</mask>
<g mask="url(#mask0_79_574)">
<path d="M58.132 22.7071C53.0175 22.7071 49.1445 26.282 49.1445 31.074C49.1445 35.8652 53.0422 39.4398 58.0573 39.4398C61.0612 39.4398 63.42 38.1487 64.9342 36.3372V35.989L61.9552 33.4571H61.6081C60.7883 34.3508 59.522 35.0206 58.107 35.0206C55.8971 35.0206 54.1593 33.3575 54.1593 31.074C54.1593 28.7887 55.8971 27.1259 58.107 27.1259C59.522 27.1259 60.7883 27.7965 61.6081 28.69H61.9552L64.9342 26.1582V25.8099C63.3707 23.9236 60.9129 22.7071 58.132 22.7071Z" fill="#495961"/>
<path d="M67.4648 39.1362H79.8289V35.0923H72.3807V32.8175H77.9916V29.0257H72.3807V26.7507H79.8289V22.7068H67.4648V39.1362Z" fill="#495961"/>
<path d="M125.908 21.7192L132.387 19.2863V18.9387L130.675 16.109H130.327L124.592 19.634V19.9817L125.56 21.7192H125.908Z" fill="#495961"/>
<path d="M126.006 33.3733L127.818 28.4957L129.532 33.3733H126.006ZM134.894 33.4494L132.932 29.0712L130.078 22.7072H125.559L118.682 39.136H123.846L124.764 36.6594H130.897C131.394 37.5446 131.915 38.2259 132.486 38.6817C133.157 39.1874 133.976 39.4395 135.019 39.4395C135.93 39.4395 136.735 39.2463 137.38 38.9024L135.163 34.0008C135.077 33.8423 134.989 33.6602 134.894 33.4494Z" fill="#495961"/>
<path d="M88.9873 33.3733L90.7995 28.4957L92.5126 33.3733H88.9873ZM97.8759 33.4494L95.9126 29.0712L93.0586 22.7072H88.5398L81.6621 39.136H86.8271L87.7457 36.6594H93.8783C94.3747 37.5446 94.8965 38.2259 95.4669 38.6817C96.1382 39.1874 96.9572 39.4395 98.0003 39.4395C98.9112 39.4395 99.7162 39.2463 100.36 38.9024L98.1434 34.0008C98.0577 33.8423 97.9692 33.6602 97.8759 33.4494Z" fill="#495961"/>
<path d="M109.746 30.0875H107.213V26.7509H109.746C110.664 26.7509 111.458 27.3576 111.458 28.47C111.458 29.5564 110.664 30.0875 109.746 30.0875ZM113.494 32.6916C115.283 31.8829 116.474 30.3404 116.474 28.192C116.474 24.8298 114.19 22.7071 109.944 22.7071H102.297V39.1357H107.213V33.3731H107.61C108.703 33.3731 109.721 35.6233 110.316 36.6842C111.434 38.6567 112.477 39.4398 114.711 39.4398C115.704 39.4398 116.722 39.1117 117.219 38.7065L117.233 38.6659L113.597 32.8054C113.563 32.7662 113.529 32.7261 113.494 32.6916Z" fill="#495961"/>
<path d="M54.4306 44.9663C54.4306 45.6796 54.1521 46.3156 53.6785 46.7731C53.214 47.2305 52.5544 47.5175 51.7952 47.5175C50.283 47.5175 49.1426 46.4092 49.1426 44.9049C49.1426 43.4005 50.3141 42.2921 51.8023 42.2921C52.6627 42.2921 53.4304 42.6796 53.904 43.2605V43.354L53.1596 43.9816H53.0664C52.7799 43.6254 52.3451 43.3851 51.8334 43.3851C51.0345 43.3851 50.3756 44.0128 50.3756 44.9126C50.3756 45.7953 51.0042 46.4246 51.8567 46.4246C52.2294 46.4246 52.57 46.2993 52.818 46.0746C53.0125 45.8972 53.144 45.6725 53.1907 45.4088H51.842V44.5174H54.3216L54.4152 44.5944C54.4306 44.7112 54.4306 44.8582 54.4306 44.9663Z" fill="#495961"/>
<path d="M59.5355 44.9045C59.5355 44.0132 58.8604 43.3855 58.0079 43.3855C57.1552 43.3855 56.4801 44.0132 56.4801 44.9045C56.4801 45.788 57.1552 46.4237 58.0079 46.4237C58.8604 46.4237 59.5355 45.788 59.5355 44.9045ZM55.2402 44.9045C55.2402 43.4079 56.4342 42.2919 58.0079 42.2919C59.5737 42.2919 60.7685 43.4079 60.7685 44.9045C60.7685 46.3932 59.5737 47.5172 58.0079 47.5172C56.4342 47.5172 55.2402 46.4003 55.2402 44.9045Z" fill="#495961"/>
<path d="M66.4405 42.4782L64.1691 47.4242H63.455L61.1836 42.4782L61.2389 42.3847H62.4788L63.8122 45.6252L65.192 42.3847H66.3859L66.4405 42.4782Z" fill="#495961"/>
<path d="M68.567 43.3773V44.424H70.4744V45.3699H68.567V46.4316H71.0477V47.4241H67.3574V42.3855H71.0329V43.3773H68.567Z" fill="#495961"/>
<path d="M73.4714 44.703H74.4407C74.8513 44.703 75.1461 44.4548 75.1461 44.051C75.1461 43.6405 74.8513 43.3769 74.4407 43.3769H73.4714V44.703ZM76.4484 47.3311L76.3946 47.4243H75.1929L74.177 45.5329H73.4714V47.4243H72.2617V42.3851H74.4322C75.704 42.3851 76.3792 42.9971 76.3792 43.9904C76.3792 44.6717 75.9909 45.1446 75.3864 45.3771L76.4484 47.3311Z" fill="#495961"/>
<path d="M82.1209 42.385V47.4479H81.3688L78.8111 44.4471V47.4244H77.6094V42.385H78.3609L80.9113 45.385V42.385H82.1209Z" fill="#495961"/>
<path d="M87.5759 44.9045C87.5759 44.0132 86.9014 43.3855 86.0489 43.3855C85.1955 43.3855 84.5211 44.0132 84.5211 44.9045C84.5211 45.788 85.1955 46.4237 86.0489 46.4237C86.9014 46.4237 87.5759 45.788 87.5759 44.9045ZM83.2812 44.9045C83.2812 43.4079 84.4746 42.2919 86.0489 42.2919C87.6147 42.2919 88.8087 43.4079 88.8087 44.9045C88.8087 46.3932 87.6147 47.5172 86.0489 47.5172C84.4746 47.5172 83.2812 46.4003 83.2812 44.9045Z" fill="#495961"/>
<path d="M95.5793 44.9045C95.5793 43.951 94.9898 43.3769 94.1206 43.3769H93.1671V46.4313H94.1206C94.9898 46.4313 95.5793 45.858 95.5793 44.9045ZM96.8114 44.8969C96.8114 46.4165 95.7892 47.4237 94.1605 47.4237H91.959V42.3851H94.1605C95.7892 42.3851 96.8114 43.3931 96.8114 44.8969Z" fill="#495961"/>
<path d="M101.97 44.9045C101.97 44.0132 101.296 43.3855 100.443 43.3855C99.5892 43.3855 98.9155 44.0132 98.9155 44.9045C98.9155 45.788 99.5892 46.4237 100.443 46.4237C101.296 46.4237 101.97 45.788 101.97 44.9045ZM97.6758 44.9045C97.6758 43.4079 98.8697 42.2919 100.443 42.2919C102.009 42.2919 103.203 43.4079 103.203 44.9045C103.203 46.3932 102.009 47.5172 100.443 47.5172C98.8697 47.5172 97.6758 46.4003 97.6758 44.9045Z" fill="#495961"/>
<path d="M107.563 43.3773V44.424H109.47V45.3699H107.563V46.4316H110.044V47.4241H106.354V42.3855H110.029V43.3773H107.563Z" fill="#495961"/>
<path d="M110.879 46.6102V46.517L111.476 45.8271H111.561C111.878 46.1917 112.46 46.4936 112.957 46.4936C113.452 46.4936 113.763 46.2919 113.763 45.9972C113.763 45.5717 113.274 45.5172 112.653 45.3238C111.964 45.1058 111.119 44.7178 111.119 43.7805C111.119 42.9049 111.895 42.2918 113.018 42.2918C113.84 42.2918 114.546 42.6178 114.91 43.0526V43.1372L114.313 43.8187H114.228C113.98 43.5637 113.561 43.2688 113.034 43.2688C112.631 43.2688 112.352 43.4399 112.352 43.7184C112.352 44.0512 112.732 44.1834 113.143 44.3227C114.003 44.5942 115.003 44.8578 115.003 45.9895C115.003 46.9743 114.112 47.517 113.026 47.517C112.127 47.517 111.327 47.161 110.879 46.6102Z" fill="#495961"/>
<path d="M118.419 47.4242H117.203V43.3774H115.621V42.3855H120.001V43.3774H118.419V47.4242Z" fill="#495961"/>
<path d="M123.238 45.7026L122.533 43.99L121.805 45.7026H123.238ZM125.224 47.3306L125.168 47.4248H123.944L123.58 46.5404H121.447L121.075 47.4248H119.897L119.842 47.3306L122.169 42.3847H122.905L125.224 47.3306Z" fill="#495961"/>
<path d="M129.755 44.9045C129.755 43.951 129.166 43.3769 128.297 43.3769H127.344V46.4313H128.297C129.166 46.4313 129.755 45.858 129.755 44.9045ZM130.988 44.8969C130.988 46.4165 129.964 47.4237 128.337 47.4237H126.135V42.3851H128.337C129.964 42.3851 130.988 43.3931 130.988 44.8969Z" fill="#495961"/>
<path d="M136.146 44.9045C136.146 44.0132 135.472 43.3855 134.619 43.3855C133.766 43.3855 133.091 44.0132 133.091 44.9045C133.091 45.788 133.766 46.4237 134.619 46.4237C135.472 46.4237 136.146 45.788 136.146 44.9045ZM131.852 44.9045C131.852 43.4079 133.045 42.2919 134.619 42.2919C136.185 42.2919 137.379 43.4079 137.379 44.9045C137.379 46.3932 136.185 47.5172 134.619 47.5172C133.045 47.5172 131.852 46.4003 131.852 44.9045Z" fill="#495961"/>
<path d="M39.7949 32.324C39.9706 30.7581 41.0785 29.6833 42.3596 28.8683L42.5876 28.7227L38.3093 23.2922L38.2191 23.2752C37.7074 23.1779 37.1953 23.0894 36.6835 23.0075C35.1231 22.7976 34.0186 22.6567 33.0533 22.5627C32.7881 22.5386 32.5227 22.5183 32.2584 22.4979L32.2326 22.4965L31.9932 22.4795L31.9292 22.4755L31.8663 22.4718C31.2768 22.4328 30.6863 22.4032 30.0951 22.3837H30.0904V22.3822C30.0203 22.3798 29.9496 22.3783 29.8781 22.3761V22.3767C29.8198 22.3751 29.7606 22.3737 29.7006 22.3728C27.5391 22.3263 25.6263 22.4002 24.2665 22.4832C23.7944 22.5112 20.7467 22.8155 20.1789 22.8833L20.087 22.8949C19.3949 22.9897 17.9729 23.2107 17.4532 23.2915L13.1758 28.7227L13.4029 28.8683C14.6833 29.6833 15.7917 30.7581 15.9675 32.324C16.141 33.8595 15.3118 35.6451 14.7323 37.0421C13.9528 38.9174 13.2272 40.7686 13.2272 42.829C13.2272 43.2723 13.2948 43.7087 13.4256 44.1311C13.8503 45.5032 14.9089 46.6051 16.0219 47.4826C17.3196 48.5045 18.8262 49.3424 20.2871 50.1177C21.8053 50.9226 23.3781 51.6843 24.8444 52.5772C25.8224 53.1736 27.1228 54.0518 27.662 55.0809L27.8813 55.5L28.1008 55.0809C28.6397 54.0518 29.9419 53.1736 30.9179 52.5772C32.3843 51.6843 33.9565 50.9226 35.4754 50.1177C36.9365 49.3424 38.4431 48.5045 39.7413 47.4826C40.8554 46.6051 41.9124 45.5032 42.3386 44.1311C42.4694 43.7087 42.5355 43.2723 42.5355 42.829C42.5355 40.7686 41.8106 38.9174 41.0318 37.0421C40.4508 35.6451 39.6217 33.8595 39.7949 32.324Z" fill="white"/>
<path fill-rule="evenodd" clip-rule="evenodd" d="M33.1152 17.0996L33.9781 17.2319L33.9865 16.7107L33.1152 17.0996Z" fill="#EEDCB8"/>
<path fill-rule="evenodd" clip-rule="evenodd" d="M25.4041 16.406L25.3945 16.9116L25.8964 16.8783L25.4041 16.406Z" fill="#EEDCB8"/>
<path fill-rule="evenodd" clip-rule="evenodd" d="M29.8555 16.8717L30.358 16.9043L30.3477 16.3996L29.8555 16.8717Z" fill="#EEDCB8"/>
</g>
<path d="M28.2186 16.1456H28.207H28.195H28.1834H28.1715H28.1598H28.1481H28.1362H28.1245H28.1126H28.1009H28.0891H28.0773H28.0656H28.0537H28.042H28.0304H28.0184H28.0068H27.9949H27.9831H27.9666H27.9501H27.9335H27.917H27.9005H27.8838H27.8674H27.8508H27.8342C27.5294 16.1456 27.2226 16.147 26.9166 16.1508C26.86 16.1523 26.8163 16.1969 26.8163 16.2511V16.9373C26.2873 16.9496 25.7453 16.9692 25.2 16.9932V16.3172C25.2 16.2901 25.1875 16.2628 25.1681 16.2443C25.1471 16.2255 25.1206 16.2148 25.0918 16.2178C24.496 16.2551 23.8824 16.3049 23.2684 16.3656C23.2171 16.3701 23.1774 16.4122 23.1774 16.4642V17.1456C22.6269 17.2055 22.1554 17.264 21.6373 17.3348V16.648C21.6373 16.6185 21.6241 16.591 21.6024 16.5708C21.5797 16.5523 21.5486 16.5443 21.5206 16.5493C21.1317 16.6114 20.7117 16.6991 20.3063 16.7841C20.0669 16.8338 19.8404 16.8813 19.6204 16.923C19.5745 16.9324 19.5392 16.9711 19.5371 17.0176V17.7693C19.5377 17.7832 19.5424 17.7984 19.5488 17.8115C19.6475 18.0029 19.7478 18.1933 19.8475 18.3847C19.8623 18.4142 19.8934 18.4321 19.9254 18.436C19.9407 18.4385 19.9571 18.436 19.9719 18.4321C22.6417 18.0089 25.1323 17.8013 27.588 17.7944C30.1643 17.7858 32.6901 18.0976 35.6901 18.5668C35.6957 18.5674 35.7004 18.5684 35.7059 18.5684C35.7293 18.5684 35.7533 18.5588 35.7719 18.545C35.7936 18.5256 35.8077 18.4982 35.8077 18.4687V18.3777C35.8886 18.2244 35.9686 18.0711 36.0505 17.9188L36.108 17.8123C36.1148 17.7982 36.1179 17.7813 36.1179 17.7665V17.0219C36.1179 16.9745 36.0846 16.9333 36.0364 16.923L35.7307 16.8634C35.2165 16.7606 34.6836 16.6548 34.1764 16.5708C34.1484 16.5671 34.119 16.5739 34.0963 16.5927C34.0737 16.6106 34.0604 16.6378 34.0589 16.6666L34.0442 17.0686L34.0481 17.3098C33.629 17.253 33.2306 17.2118 32.813 17.1674C32.7033 17.1566 32.5914 17.1449 32.4784 17.1324V16.4535C32.4784 16.4028 32.4388 16.3593 32.3858 16.3538C31.7884 16.2962 31.1754 16.2473 30.564 16.2083C30.5354 16.2069 30.5075 16.2178 30.4871 16.2357C30.4662 16.2544 30.456 16.2808 30.456 16.3089V16.9824C29.9262 16.9597 29.3833 16.9428 28.8389 16.9333V16.2489C28.8389 16.1929 28.7937 16.1486 28.7369 16.1486C28.568 16.1467 28.3992 16.146 28.2303 16.1456H28.2186Z" fill="url(#paint0_linear_79_574)"/>
<path d="M19.873 18.5396L20.5854 19.239C20.5854 19.239 24.257 18.6219 27.7542 18.6219C31.2516 18.6219 35.1479 19.239 35.1479 19.239L35.6419 18.7768L35.781 18.5396C35.781 18.5396 32.5443 17.8496 28.1014 17.8496C23.6582 17.8496 19.873 18.5396 19.873 18.5396Z" fill="url(#paint1_linear_79_574)"/>
<path d="M21.196 19.2078L19.5469 23.1371C19.5469 23.1371 23.6741 22.654 28.1142 22.5584C32.5456 22.4611 36.2352 23.1432 36.2561 23.1672C36.2397 23.134 34.5205 19.1789 34.5205 19.1789C34.5205 19.1789 31.5881 18.8057 28.0761 18.7169C27.8241 18.7106 27.5727 18.7075 27.3237 18.7075C24.0981 18.7075 21.196 19.2078 21.196 19.2078Z" fill="url(#paint2_linear_79_574)"/>
<mask id="mask1_79_574" style="mask-type:luminance" maskUnits="userSpaceOnUse" x="0" y="0" width="152" height="65">
<path d="M0 0H152V65H0V0Z" fill="white"/>
</mask>
<g mask="url(#mask1_79_574)">
<path fill-rule="evenodd" clip-rule="evenodd" d="M29.0052 22.4783L26.5176 22.5103C26.5176 22.5103 26.5644 21.4518 26.6756 21.1087C26.7868 20.7657 27.0169 20.3829 27.2931 20.2157C27.5694 20.05 27.8929 19.9684 28.194 20.0789C28.4957 20.1878 28.6965 20.3487 28.8911 20.6792C29.0847 21.0091 29.1563 21.3251 29.2176 21.6959C29.2782 22.0679 29.2176 22.4963 29.2176 22.4963L29.0052 22.4783Z" fill="#EEDCB8"/>
<path fill-rule="evenodd" clip-rule="evenodd" d="M31.5914 19.4071C31.1939 19.4305 30.8368 19.6777 30.8648 20.002C30.8928 20.3265 31.0833 21.8276 31.0833 21.8276L32.6835 21.9435L32.3924 19.8807C32.3924 19.8807 31.988 19.3838 31.5914 19.4071Z" fill="#EEDCB8"/>
</g>
<path d="M18.1794 24.5816L15.1326 28.3941C16.2915 29.3564 17.152 30.566 17.3307 32.1402C17.5408 34.0131 16.7131 35.8945 16.0084 37.5917C15.3106 39.2711 14.6074 41.0023 14.6074 42.8465C14.6074 43.1466 14.6534 43.4408 14.7412 43.7278C15.4374 45.9717 18.9518 47.8344 20.915 48.876C22.467 49.6997 24.0686 50.4767 25.5682 51.3899C26.3258 51.8518 27.1948 52.376 27.8802 53.0333C28.5629 52.376 29.3386 51.8518 30.0978 51.3899C31.5975 50.4767 33.1983 49.6997 34.7501 48.876C36.8433 47.7659 41.0351 45.6145 41.057 42.8683V42.8117C41.0482 40.9804 40.3511 39.2605 39.6577 37.5917C38.9521 35.8945 38.1425 34.0162 38.3533 32.1447C38.5305 30.5698 39.3965 29.3976 40.5545 28.4355L37.4766 24.5699C34.3845 24.0113 31.2707 23.7539 28.154 23.7539C24.8222 23.7539 21.4877 24.0479 18.1794 24.5816Z" fill="url(#paint3_radial_79_574)"/>
<mask id="mask2_79_574" style="mask-type:luminance" maskUnits="userSpaceOnUse" x="0" y="0" width="152" height="65">
<path d="M0 0H152V65H0V0Z" fill="white"/>
</mask>
<g mask="url(#mask2_79_574)">
<path fill-rule="evenodd" clip-rule="evenodd" d="M18.7406 29.7098L18.49 30.5134L17.6758 30.5119L18.3362 31.008L18.0825 31.8113L18.7406 31.3138L19.4003 31.8113L19.1458 31.008L19.8062 30.5119L18.9911 30.5134L18.7406 29.7098Z" fill="white"/>
<path d="M18.7406 29.7098L18.49 30.5134L17.6758 30.5119L18.3362 31.008L18.0825 31.8113L18.7406 31.3138L19.4003 31.8113L19.1458 31.008L19.8062 30.5119L18.9911 30.5134L18.7406 29.7098Z" stroke="white" stroke-width="0.288" stroke-miterlimit="2.613"/>
<path fill-rule="evenodd" clip-rule="evenodd" d="M18.0539 35.1771L17.8034 35.9806L16.9883 35.9791L17.6487 36.4753L17.3951 37.2787L18.0539 36.7803L18.7119 37.2787L18.4582 36.4753L19.1186 35.9791L18.3035 35.9806L18.0539 35.1771Z" fill="white"/>
<path d="M18.0539 35.1771L17.8034 35.9806L16.9883 35.9791L17.6487 36.4753L17.3951 37.2787L18.0539 36.7803L18.7119 37.2787L18.4582 36.4753L19.1186 35.9791L18.3035 35.9806L18.0539 35.1771Z" stroke="white" stroke-width="0.288" stroke-miterlimit="2.613"/>
<path fill-rule="evenodd" clip-rule="evenodd" d="M17.1653 40.0755L16.914 40.8789L16.0996 40.8774L16.76 41.3743L16.5066 42.1771L17.1653 41.6793L17.8242 42.1771L17.5707 41.3743L18.2311 40.8774L17.4158 40.8789L17.1653 40.0755Z" fill="white"/>
<path d="M17.1653 40.0755L16.914 40.8789L16.0996 40.8774L16.76 41.3743L16.5066 42.1771L17.1653 41.6793L17.8242 42.1771L17.5707 41.3743L18.2311 40.8774L17.4158 40.8789L17.1653 40.0755Z" stroke="white" stroke-width="0.288" stroke-miterlimit="2.613"/>
<path fill-rule="evenodd" clip-rule="evenodd" d="M27.7785 48.5994L27.528 49.4037L26.7129 49.4022L27.3733 49.8977L27.1197 50.7019L27.7785 50.2032L28.4374 50.7019L28.1838 49.8977L28.8442 49.4022L28.0299 49.4037L27.7785 48.5994Z" fill="white"/>
<path d="M27.7785 48.5994L27.528 49.4037L26.7129 49.4022L27.3733 49.8977L27.1197 50.7019L27.7785 50.2032L28.4374 50.7019L28.1838 49.8977L28.8442 49.4022L28.0299 49.4037L27.7785 48.5994Z" stroke="white" stroke-width="0.288" stroke-miterlimit="2.613"/>
<path fill-rule="evenodd" clip-rule="evenodd" d="M32.6952 46.6117L32.4449 47.4161L31.6289 47.4145L32.2901 47.91L32.0358 48.7142L32.6952 48.2155L33.3535 48.7142L33.0999 47.91L33.7603 47.4145L32.9457 47.4161L32.6952 46.6117Z" fill="white"/>
<path d="M32.6952 46.6117L32.4449 47.4161L31.6289 47.4145L32.2901 47.91L32.0358 48.7142L32.6952 48.2155L33.3535 48.7142L33.0999 47.91L33.7603 47.4145L32.9457 47.4161L32.6952 46.6117Z" stroke="white" stroke-width="0.288" stroke-miterlimit="2.613"/>
<path fill-rule="evenodd" clip-rule="evenodd" d="M22.8148 46.6117L23.0661 47.4161L23.8804 47.4145L23.2201 47.91L23.4737 48.7142L22.8148 48.2155L22.1559 48.7142L22.4095 47.91L21.75 47.4145L22.5636 47.4161L22.8148 46.6117Z" fill="white"/>
<path d="M22.8148 46.6117L23.0661 47.4161L23.8804 47.4145L23.2201 47.91L23.4737 48.7142L22.8148 48.2155L22.1559 48.7142L22.4095 47.91L21.75 47.4145L22.5636 47.4161L22.8148 46.6117Z" stroke="white" stroke-width="0.288" stroke-miterlimit="2.613"/>
<path fill-rule="evenodd" clip-rule="evenodd" d="M18.9064 44.0007L19.1569 44.8041L19.9712 44.8035L19.3108 45.299L19.5644 46.1023L18.9064 45.6045L18.2467 46.1023L18.5011 45.299L17.8398 44.8035L18.6559 44.8041L18.9064 44.0007Z" fill="white"/>
<path d="M18.9064 44.0007L19.1569 44.8041L19.9712 44.8035L19.3108 45.299L19.5644 46.1023L18.9064 45.6045L18.2467 46.1023L18.5011 45.299L17.8398 44.8035L18.6559 44.8041L18.9064 44.0007Z" stroke="white" stroke-width="0.288" stroke-miterlimit="2.613"/>
</g>
<path d="M19.8386 37.153H35.8191C35.9506 32.0485 33.2786 26.8108 27.8295 26.8108C22.3798 26.8108 19.7073 32.0485 19.8386 37.153Z" fill="url(#paint4_radial_79_574)"/>
<mask id="mask3_79_574" style="mask-type:luminance" maskUnits="userSpaceOnUse" x="0" y="0" width="152" height="65">
<path d="M0 0H152V65H0V0Z" fill="white"/>
</mask>
<g mask="url(#mask3_79_574)">
<path fill-rule="evenodd" clip-rule="evenodd" d="M19.8351 36.6221H24.3313V36.8135H19.832V36.7706H19.8337C19.8337 36.721 19.8351 36.6718 19.8351 36.6221Z" fill="#CFA60E"/>
<path d="M19.8351 36.6221H24.3313V36.8135H19.832V36.7706H19.8337C19.8337 36.721 19.8351 36.6718 19.8351 36.6221Z" stroke="#CFA60E" stroke-width="0.288" stroke-miterlimit="2.613"/>
<path fill-rule="evenodd" clip-rule="evenodd" d="M19.8725 35.7506L24.3523 36.6273L24.3142 36.8138L19.8594 35.9428C19.8639 35.8781 19.867 35.8144 19.8725 35.7506Z" fill="#CFA60E"/>
<path d="M19.8725 35.7506L24.3523 36.6273L24.3142 36.8138L19.8594 35.9428C19.8639 35.8781 19.867 35.8144 19.8725 35.7506Z" stroke="#CFA60E" stroke-width="0.288" stroke-miterlimit="2.613"/>
<path fill-rule="evenodd" clip-rule="evenodd" d="M19.9719 34.8433L24.373 36.6361L24.2982 36.8127L19.9453 35.0393C19.9531 34.9731 19.9623 34.9087 19.9719 34.8433Z" fill="#CFA60E"/>
<path d="M19.9719 34.8433L24.373 36.6361L24.2982 36.8127L19.9453 35.0393C19.9531 34.9731 19.9623 34.9087 19.9719 34.8433Z" stroke="#CFA60E" stroke-width="0.288" stroke-miterlimit="2.613"/>
<path fill-rule="evenodd" clip-rule="evenodd" d="M20.1489 33.8629L24.3899 36.6482L24.2832 36.8069L20.1055 34.0634C20.1195 33.9966 20.1341 33.9297 20.1489 33.8629Z" fill="#CFA60E"/>
<path d="M20.1489 33.8629L24.3899 36.6482L24.2832 36.8069L20.1055 34.0634C20.1195 33.9966 20.1341 33.9297 20.1489 33.8629Z" stroke="#CFA60E" stroke-width="0.288" stroke-miterlimit="2.613"/>
<path fill-rule="evenodd" clip-rule="evenodd" d="M20.4435 32.772L24.406 36.6656L24.2698 36.7996L20.3789 32.9788C20.4001 32.9096 20.421 32.8404 20.4435 32.772Z" fill="#CFA60E"/>
<path d="M20.4435 32.772L24.406 36.6656L24.2698 36.7996L20.3789 32.9788C20.4001 32.9096 20.421 32.8404 20.4435 32.772Z" stroke="#CFA60E" stroke-width="0.288" stroke-miterlimit="2.613"/>
<path fill-rule="evenodd" clip-rule="evenodd" d="M20.9162 31.5412L24.4187 36.6834L24.2579 36.7891L20.8242 31.749C20.8538 31.6797 20.8849 31.6098 20.9162 31.5412Z" fill="#CFA60E"/>
<path d="M20.9162 31.5412L24.4187 36.6834L24.2579 36.7891L20.8242 31.749C20.8538 31.6797 20.8849 31.6098 20.9162 31.5412Z" stroke="#CFA60E" stroke-width="0.288" stroke-miterlimit="2.613"/>
<path fill-rule="evenodd" clip-rule="evenodd" d="M21.6639 30.1823L24.4253 36.7035L24.2473 36.7766L21.5371 30.3793C21.5791 30.3131 21.6202 30.2477 21.6639 30.1823Z" fill="#CFA60E"/>
<path d="M21.6639 30.1823L24.4253 36.7035L24.2473 36.7766L21.5371 30.3793C21.5791 30.3131 21.6202 30.2477 21.6639 30.1823Z" stroke="#CFA60E" stroke-width="0.288" stroke-miterlimit="2.613"/>
<path fill-rule="evenodd" clip-rule="evenodd" d="M22.8027 28.8019L24.4293 36.7261L24.2394 36.7626L22.6387 28.9652C22.6923 28.9108 22.7476 28.8548 22.8027 28.8019Z" fill="#CFA60E"/>
<path d="M22.8027 28.8019L24.4293 36.7261L24.2394 36.7626L22.6387 28.9652C22.6923 28.9108 22.7476 28.8548 22.8027 28.8019Z" stroke="#CFA60E" stroke-width="0.288" stroke-miterlimit="2.613"/>
<path fill-rule="evenodd" clip-rule="evenodd" d="M24.3923 27.6372L24.4279 36.7468L24.235 36.7477L24.1992 27.7446C24.2631 27.7072 24.3268 27.6723 24.3923 27.6372Z" fill="#CFA60E"/>
<path d="M24.3923 27.6372L24.4279 36.7468L24.235 36.7477L24.1992 27.7446C24.2631 27.7072 24.3268 27.6723 24.3923 27.6372Z" stroke="#CFA60E" stroke-width="0.288" stroke-miterlimit="2.613"/>
<path fill-rule="evenodd" clip-rule="evenodd" d="M26.3591 26.9457L24.4223 36.7683L24.2324 36.7317L26.1538 26.9875C26.2206 26.9728 26.2907 26.9588 26.3591 26.9457Z" fill="#CFA60E"/>
<path d="M26.3591 26.9457L24.4223 36.7683L24.2324 36.7317L26.1538 26.9875C26.2206 26.9728 26.2907 26.9588 26.3591 26.9457Z" stroke="#CFA60E" stroke-width="0.288" stroke-miterlimit="2.613"/>
<path fill-rule="evenodd" clip-rule="evenodd" d="M28.5361 26.8403L24.4132 36.7883L24.2344 36.7167L28.333 26.8246C28.4007 26.8293 28.469 26.834 28.5361 26.8403Z" fill="#CFA60E"/>
<path d="M28.5361 26.8403L24.4132 36.7883L24.2344 36.7167L28.333 26.8246C28.4007 26.8293 28.469 26.834 28.5361 26.8403Z" stroke="#CFA60E" stroke-width="0.288" stroke-miterlimit="2.613"/>
<path fill-rule="evenodd" clip-rule="evenodd" d="M30.7182 27.3758L24.4027 36.8058L24.2402 36.7007L30.5361 27.301C30.5976 27.3252 30.6576 27.3508 30.7182 27.3758Z" fill="#CFA60E"/>
<path d="M30.7182 27.3758L24.4027 36.8058L24.2402 36.7007L30.5361 27.301C30.5976 27.3252 30.6576 27.3508 30.7182 27.3758Z" stroke="#CFA60E" stroke-width="0.288" stroke-miterlimit="2.613"/>
<path fill-rule="evenodd" clip-rule="evenodd" d="M32.6309 28.5954L24.3857 36.8204L24.248 36.6867L32.4862 28.4692C32.5355 28.5105 32.5835 28.5526 32.6309 28.5954Z" fill="#CFA60E"/>
<path d="M32.6309 28.5954L24.3857 36.8204L24.248 36.6867L32.4862 28.4692C32.5355 28.5105 32.5835 28.5526 32.6309 28.5954Z" stroke="#CFA60E" stroke-width="0.288" stroke-miterlimit="2.613"/>
<path fill-rule="evenodd" clip-rule="evenodd" d="M34.0922 30.3368L24.3667 36.8322L24.2578 36.6752L33.9881 30.1759C34.0246 30.2286 34.0589 30.2824 34.0922 30.3368Z" fill="#CFA60E"/>
<path d="M34.0922 30.3368L24.3667 36.8322L24.2578 36.6752L33.9881 30.1759C34.0246 30.2286 34.0589 30.2824 34.0922 30.3368Z" stroke="#CFA60E" stroke-width="0.288" stroke-miterlimit="2.613"/>
<path fill-rule="evenodd" clip-rule="evenodd" d="M35.0791 32.3724L24.3469 36.8401L24.2715 36.6641L35.013 32.1927C35.0357 32.2526 35.0573 32.3124 35.0791 32.3724Z" fill="#CFA60E"/>
<path d="M35.0791 32.3724L24.3469 36.8401L24.2715 36.6641L35.013 32.1927C35.0357 32.2526 35.0573 32.3124 35.0791 32.3724Z" stroke="#CFA60E" stroke-width="0.288" stroke-miterlimit="2.613"/>
<path fill-rule="evenodd" clip-rule="evenodd" d="M35.6387 34.5403L24.324 36.8434L24.2852 36.6566L35.6061 34.3528C35.6169 34.415 35.6286 34.4771 35.6387 34.5403Z" fill="#CFA60E"/>
<path d="M35.6387 34.5403L24.324 36.8434L24.2852 36.6566L35.6061 34.3528C35.6169 34.415 35.6286 34.4771 35.6387 34.5403Z" stroke="#CFA60E" stroke-width="0.288" stroke-miterlimit="2.613"/>
<path fill-rule="evenodd" clip-rule="evenodd" d="M35.8242 36.7554L24.3023 36.8424L24.3008 36.6519L35.8218 36.5649C35.8233 36.6286 35.8242 36.6916 35.8242 36.7554Z" fill="#CFA60E"/>
<path d="M35.8242 36.7554L24.3023 36.8424L24.3008 36.6519L35.8218 36.5649C35.8233 36.6286 35.8242 36.6916 35.8242 36.7554Z" stroke="#CFA60E" stroke-width="0.288" stroke-miterlimit="2.613"/>
<path fill-rule="evenodd" clip-rule="evenodd" d="M24.3306 33.8508C25.9613 33.8508 27.2827 35.1497 27.2827 36.7518H21.3789C21.3789 35.1497 22.7003 33.8508 24.3306 33.8508Z" fill="#CFA60E"/>
<path fill-rule="evenodd" clip-rule="evenodd" d="M24.3314 34.1011C25.8273 34.1011 27.0409 35.2593 27.0409 36.688H21.623C21.623 35.2593 22.8358 34.1011 24.3314 34.1011Z" fill="#FBCC00"/>
</g>
<path d="M19.832 36.8179C19.8338 37.1975 19.8507 37.5778 19.8827 37.9542C21.734 38.0132 24.1182 37.9036 24.1765 38.2552C24.1842 38.3019 24.2823 38.2779 24.367 38.2536C24.4559 38.2287 24.5304 38.2031 24.4845 38.2552C23.6373 39.194 24.6867 40.8143 25.7579 41.6457C29.0887 44.2278 27.8706 45.6794 25.1728 46.2627C25.9696 46.5644 26.853 46.7301 27.8284 46.7301C30.9034 46.7301 33.0869 45.0821 34.3867 42.7353C32.3931 41.945 29.0179 41.532 28.2353 39.7604C27.9763 39.1776 29.5677 38.0739 29.8152 37.598C30.2958 36.6769 27.1727 36.8729 27.2576 36.8086L19.888 36.7688C19.913 36.7704 19.888 36.7874 19.832 36.8179Z" fill="url(#paint5_linear_79_574)"/>
<path d="M19.8333 36.7703V36.7176C19.4201 38.9077 20.3714 42.3044 22.3581 44.4254C23.9877 46.1646 26.3012 46.9152 27.2424 46.7784C27.31 46.7689 27.3753 46.7728 27.4329 46.7784C27.5341 46.7861 27.6142 46.7953 27.6506 46.7245C29.7011 42.8614 22.2252 38.5382 27.5365 36.821C27.9005 36.7035 27.2353 36.667 26.1416 36.667C24.3035 36.667 21.2537 36.7703 19.8333 36.7703Z" fill="url(#paint6_linear_79_574)"/>
<path d="M34.8718 32.1534H34.8695H34.8674H34.8652H34.8629H34.8543C32.965 32.1737 33.1391 34.3794 31.8355 34.5163C31.5266 34.5488 30.7588 34.2891 30.2237 34.2045C29.5003 34.0886 28.0868 35.8043 27.7539 36.7339H35.8236C35.8181 35.1566 35.5419 33.5815 35.0006 32.165C34.9591 32.1585 34.9167 32.1541 34.8738 32.1534H34.8718Z" fill="url(#paint7_linear_79_574)"/>
<mask id="mask4_79_574" style="mask-type:luminance" maskUnits="userSpaceOnUse" x="0" y="0" width="152" height="65">
<path d="M0 0H152V65H0V0Z" fill="white"/>
</mask>
<g mask="url(#mask4_79_574)">
<path fill-rule="evenodd" clip-rule="evenodd" d="M23.1358 42.4662C22.0741 40.3055 22.6177 38.9683 24.0965 38.1447C23.4245 39.3332 24.4046 40.3357 25.8248 41.4456C24.8215 41.651 23.8772 41.9481 23.1725 42.445L23.1358 42.4662Z" fill="white"/>
</g>
<path d="M28.3069 41.2145C29.6192 42.5835 32.0242 42.7663 33.7899 43.6796C35.1193 41.8486 35.7961 39.4047 35.8233 36.9461V36.8636L27.7817 36.7688C27.0489 37.9099 26.6524 39.4871 28.3069 41.2145Z" fill="url(#paint8_linear_79_574)"/>
<path d="M34.0408 34.5878C33.3586 34.6673 32.8957 35.7755 31.5664 36.5984H35.8213C35.8135 36.0113 35.7686 35.4255 35.6868 34.8476C35.2753 34.7941 34.6451 34.6399 34.2019 34.5878H34.0408Z" fill="url(#paint9_linear_79_574)"/>
<mask id="mask5_79_574" style="mask-type:luminance" maskUnits="userSpaceOnUse" x="0" y="0" width="152" height="65">
<path d="M0 0H152V65H0V0Z" fill="white"/>
</mask>
<g mask="url(#mask5_79_574)">
<path d="M23.7578 31.9426H24.8288V31.3833H23.7578V31.9426Z" fill="#FBCC00"/>
<path d="M23.7578 31.3829H24.829V31.942H23.7578V31.3829Z" stroke="#FBCC00" stroke-width="0.288" stroke-miterlimit="2.613"/>
<path fill-rule="evenodd" clip-rule="evenodd" d="M28.1814 30.1658C28.8759 30.1526 29.5745 30.1753 30.2262 30.4101C30.7327 30.5928 30.9279 30.5851 31.3947 31.023L30.6844 31.4679C29.9711 30.6767 29.0781 30.5394 28.1595 30.2747C27.7745 30.1635 27.7893 30.1737 28.1814 30.1658Z" fill="white"/>
<path fill-rule="evenodd" clip-rule="evenodd" d="M31.081 31.0194C31.655 31.0584 32.3123 30.6268 32.5861 30.5739C32.6787 30.5575 32.8508 30.7231 32.7698 30.8009C32.7169 30.8514 32.4048 30.9667 32.317 31.0126C32.2593 31.0421 32.7566 30.7839 32.8212 30.7932C32.9611 30.815 33.0466 31.0421 32.9852 31.0887C32.9852 31.0887 32.5411 31.2076 32.4088 31.2683C32.2851 31.3237 32.7775 31.0988 32.9852 31.0887C33.0591 31.0856 33.1431 31.3175 33.038 31.3844C32.7261 31.5849 32.3123 31.5936 31.9825 31.7382C32.1086 32.2336 32.4344 32.7991 32.4181 33.3118C32.3925 34.1097 31.9512 34.8573 31.8168 35.6047C31.7633 35.8971 31.8005 35.9725 31.7398 35.6333C31.5647 34.6581 31.498 32.9283 31.0413 32.2874C30.8545 32.1692 30.7154 32.068 30.4852 31.9881C30.3637 31.9388 30.1825 31.9373 29.9498 31.9178C29.8248 31.9521 29.523 32.0191 29.3984 32.0532C29.439 31.8207 29.6217 31.1643 30.0636 31.2194L31.081 31.0194Z" fill="white"/>
<path fill-rule="evenodd" clip-rule="evenodd" d="M31.2767 40.0244L31.2588 40.302L31.6377 40.5774L31.6252 40.2836L31.2767 40.0244ZM31.2597 40.5331L31.2431 40.8053L31.6502 41.1038L31.6406 40.817L31.2597 40.5331ZM31.2416 41.0426L31.2269 41.3202L31.6665 41.6408L31.6579 41.3513L31.2416 41.0426ZM31.2253 41.5512L31.2106 41.8189L31.685 42.1728L31.6757 41.8864L31.2253 41.5512ZM31.2074 42.0599L31.1951 42.3307L31.7053 42.7017L31.6936 42.4217L31.2074 42.0599ZM31.1904 42.5693L31.1772 42.83L31.7192 43.2384L31.7161 42.956L31.1904 42.5693ZM31.1733 43.0782L31.16 43.3433L31.7389 43.7633L31.7263 43.4894L31.1733 43.0782ZM31.1554 43.5866L31.1461 43.8464L31.7465 44.2906L31.7405 44.0224L31.1554 43.5866ZM31.1382 44.0954L31.1289 44.3498L31.1585 44.3716H31.5085L31.1382 44.0954ZM31.293 39.5368L31.2767 39.7948L31.6189 40.0463L31.6112 39.7521L31.304 39.5229L31.293 39.5368Z" fill="#B49776"/>
<path d="M31.1441 43.1076L31.1356 43.3611L31.7057 43.7852L31.6978 43.5192L31.1441 43.1076ZM31.127 43.6156L31.1176 43.8706L31.7171 44.3171L31.7119 44.0519L31.127 43.6156ZM31.109 44.1258L31.0996 44.3793L31.1291 44.4005H31.4801L31.109 44.1258Z" stroke="#B49776" stroke-width="0.288" stroke-miterlimit="2.613"/>
</g>
<path d="M23.1504 33.0698V36.6218H25.5189L25.5127 33.0698H23.1504Z" fill="url(#paint10_linear_79_574)"/>
<path d="M24.3247 30.4096C24.1816 30.4102 24.1077 30.5899 23.9957 30.7284C23.8797 30.8739 23.7687 30.9656 23.7687 30.9656L23.7578 32.4192L23.8108 32.4854L23.7788 33.0005L24.7859 33.0137L24.7527 32.4831L24.9635 32.4389L24.9393 31.9332L24.9177 31.1057C24.9177 31.1057 24.6687 30.8607 24.5659 30.7112C24.4733 30.5767 24.5339 30.4096 24.3263 30.4096H24.3247Z" fill="url(#paint11_linear_79_574)"/>
<mask id="mask6_79_574" style="mask-type:luminance" maskUnits="userSpaceOnUse" x="0" y="0" width="152" height="65">
<path d="M0 0H152V65H0V0Z" fill="white"/>
</mask>
<g mask="url(#mask6_79_574)">
<path d="M23.8223 31.8562H24.7845V31.4098H23.8223V31.8562Z" fill="#FBCC00"/>
<path fill-rule="evenodd" clip-rule="evenodd" d="M24.0315 19.3992C24.4289 19.4226 24.7859 19.6697 24.7572 19.994C24.7299 20.3186 24.5393 21.8195 24.5393 21.8195L22.9395 21.9355L23.2303 19.8728C23.2303 19.8728 23.6347 19.3758 24.0315 19.3992Z" fill="#EEDCB8"/>
<path d="M23.6249 20.0647C23.5744 20.6139 23.5029 20.9887 23.4531 21.5387C23.7353 21.5146 23.9337 21.5123 24.1523 21.4928C24.22 20.9522 24.2753 20.5524 24.3421 20.0111C24.2045 19.6946 23.8412 19.739 23.6249 20.0647Z" fill="#77522F"/>
<path d="M32.1712 21.5382C32.1206 20.989 32.0491 20.6133 31.9994 20.0643C31.7822 19.7391 31.4197 19.6957 31.2812 20.0114C31.3489 20.5521 31.4027 20.9524 31.4721 21.4924C31.6896 21.5133 31.8881 21.5157 32.1712 21.5382Z" fill="#77522F"/>
<path d="M28.8771 22.4309L28.863 22.231C28.803 21.5284 28.7519 20.4069 27.8713 20.4069C27.0062 20.4069 26.9634 21.5682 26.9089 22.258L26.9004 22.4245L28.8771 22.4309Z" fill="#77522F"/>
<path d="M26.0419 20.4872L26.1081 19.7041C27.2834 19.665 28.4618 19.6597 29.638 19.7001L29.7033 20.4749L28.9068 20.4585C28.9512 20.5244 28.9909 20.5946 29.0249 20.6678L30.839 20.7407C30.8716 20.989 30.9036 21.2371 30.9355 21.4851L29.2444 21.4214L29.2585 21.5099C29.1293 20.702 28.8273 19.9257 27.8777 19.9257C27.3838 19.9257 27.0679 20.1442 26.8586 20.4654L26.0419 20.4872ZM25.8296 20.495C25.4896 20.5075 25.1498 20.5238 24.8098 20.5418C24.83 20.3859 24.8495 20.2312 24.8689 20.0758L24.8868 19.9342L24.8292 19.8035L24.8121 19.7662C25.1732 19.7453 25.5348 19.7272 25.8958 19.7133L25.8296 20.495ZM24.6823 19.5671C24.582 19.4511 24.4535 19.361 24.302 19.3127L24.3734 18.889C25.5077 18.7979 26.6456 18.7489 27.7883 18.7457L27.7891 19.4659C26.7521 19.4715 25.7169 19.5032 24.6823 19.5671ZM24.606 20.0431C24.543 20.5377 24.4768 21.031 24.414 21.5247L24.3881 21.7334L24.1767 21.7527C23.9432 21.7752 23.7075 21.7799 23.4727 21.7992L23.1592 21.8251L23.1871 21.5146C23.2323 21.0216 23.3139 20.5339 23.3591 20.0416L23.3647 19.977L23.401 19.9217C23.5691 19.669 23.8734 19.469 24.1906 19.553C24.3759 19.602 24.5103 19.7358 24.5851 19.9078L24.6137 19.973L24.606 20.0431ZM23.0946 20.0182C23.0744 20.2352 23.048 20.4522 23.0199 20.6693C22.7105 20.6964 22.4009 20.7254 22.0919 20.7571L22.291 19.981C22.5625 19.9505 22.8341 19.9232 23.1055 19.8969L23.0946 20.0182ZM22.9227 21.4906L22.9111 21.6087C21.9986 21.6811 21.0863 21.7761 20.1784 21.8944L20.4902 21.1585L20.5028 21.157C21.3303 21.0441 22.1612 20.9524 22.9935 20.8786C22.9662 21.0823 22.9406 21.2869 22.9227 21.4906ZM20.9213 20.1506L20.9321 20.1489L22.0679 20.0058L21.8694 20.7804L20.5853 20.9367L20.9213 20.1506ZM21.3125 19.2311C22.2599 19.0964 23.2074 18.9859 24.1571 18.9068L24.0949 19.2739C23.7604 19.2536 23.4453 19.4349 23.24 19.6955L21.0161 19.9288L21.3125 19.2311ZM20.6652 19.0764C20.4357 18.9068 20.2919 18.8031 20.0625 18.633C25.4981 17.7743 30.1919 17.7936 35.6759 18.6499L35.1623 19.0911L32.5136 18.7425C28.5708 18.3305 24.8107 18.4338 20.6652 19.0764ZM20.0182 18.3933C19.641 17.6739 19.721 17.9351 19.721 17.0798C20.3247 16.9631 20.929 16.8564 21.5328 16.7591V17.5161C22.1363 17.4321 22.7407 17.3581 23.3459 17.2936V16.5243C23.9495 16.4659 24.5522 16.417 25.1584 16.3781V17.1561C25.7618 17.128 26.3656 17.1069 26.9715 17.0937V16.3129C27.5744 16.3058 28.1772 16.305 28.7824 16.3104V17.0898C29.3868 17.1007 29.9902 17.1185 30.5956 17.1449V16.3704C31.1984 16.4077 31.802 16.4559 32.4081 16.5142V17.2803C33.0116 17.345 33.6153 17.4197 34.2203 17.5059V16.7524C34.8231 16.8511 35.4291 16.9606 36.0344 17.0798C36.0344 17.9601 36.116 17.656 35.7254 18.4065C33.0426 17.9875 30.3552 17.7416 27.6375 17.7502C25.0796 17.7573 22.547 17.989 20.0222 18.388L20.0182 18.3933ZM21.7855 16.7483L22.6419 17.1216C22.3557 17.1561 22.0709 17.1924 21.7855 17.2299V16.7483ZM25.4104 16.4216L25.8887 16.8766C25.7293 16.8828 25.5698 16.8883 25.4104 16.8954V16.4216ZM30.3435 16.4216V16.8859C30.1857 16.8791 30.0301 16.8729 29.8737 16.868L30.3435 16.4216ZM33.9784 16.7321L33.9683 17.2203C33.6906 17.1816 33.4129 17.1458 33.1445 17.0951L33.9784 16.7321ZM34.6932 19.9226L34.6567 19.9171L32.365 19.6736C32.1871 19.4582 31.9327 19.301 31.6567 19.2761L31.5942 18.906C32.5284 18.9844 33.459 19.0926 34.3883 19.2266L34.6932 19.9226ZM35.1297 20.9142L35.0924 20.9088L33.8705 20.7579L33.6766 19.9995L34.792 20.1451L35.1297 20.9142ZM35.5512 21.8724L35.514 21.8685C34.5822 21.7442 33.6463 21.6516 32.7082 21.5801L32.6996 21.4906C32.6795 21.2744 32.653 21.0597 32.625 20.8441C33.4954 20.9165 34.365 21.0115 35.2285 21.1374L35.5512 21.8724ZM32.5277 20.0182L32.5153 19.8875L32.5076 19.8758C32.8241 19.9053 33.1384 19.938 33.4541 19.9755L33.6479 20.733C33.2978 20.6979 32.9485 20.6645 32.5986 20.6358C32.5721 20.4297 32.5464 20.2244 32.5277 20.0182ZM32.1497 21.7992C31.9149 21.7799 31.6791 21.7752 31.4464 21.7527L31.2342 21.7334L31.2077 21.5247C31.1446 21.031 31.0794 20.5377 31.0172 20.0431L31.0079 19.973L31.0366 19.9078C31.1114 19.7358 31.2459 19.602 31.4326 19.553C31.7483 19.469 32.0533 19.669 32.2213 19.9217L32.257 19.977L32.2625 20.0416C32.3075 20.5339 32.3893 21.0216 32.4343 21.5146L32.4632 21.8251L32.1497 21.7992ZM30.7535 20.0758C30.7722 20.2235 30.7908 20.3711 30.8101 20.5184C30.5115 20.5044 30.2137 20.4912 29.915 20.481L29.8487 19.7072C30.1715 19.7188 30.4944 19.7327 30.8181 19.7506L30.7931 19.8035L30.7355 19.9342L30.7535 20.0758ZM30.9519 19.554C29.9678 19.4978 28.9838 19.4683 27.999 19.4659L27.9983 18.7457C29.1262 18.7489 30.2564 18.7971 31.3788 18.8871L31.4459 19.2825L31.3634 19.3004C31.1975 19.3438 31.0591 19.434 30.9519 19.554ZM27.8777 20.1324C29.022 20.1324 29.0508 21.5014 29.141 22.3562C29.1393 22.3562 29.1517 22.399 29.1502 22.399L29.1393 22.4247H29.361L29.3549 22.3592H29.3534C29.3339 22.1316 29.312 21.8803 29.2763 21.6291L29.8029 21.6407L29.8728 22.3719V22.3724H29.8713L29.8869 22.4247H30.0907L30.0861 22.3795H30.0845L30.0146 21.6454C30.3303 21.6562 30.6455 21.6687 30.9603 21.6826L30.9968 21.9737L31.4201 22.0134C31.6551 22.0358 31.8915 22.0414 32.1262 22.0598L32.7564 22.1106L32.727 21.7878C33.1337 21.818 33.5389 21.8537 33.9443 21.8944L34.1419 22.6642L34.1674 22.7826L34.372 22.7903L34.3403 22.5935L34.1674 21.9168L35.6485 22.094L35.9713 22.8291L36.0023 22.8999H36.0001L36.0235 22.9575C36.0235 22.9575 36.1621 22.9762 36.2756 22.9925L36.2787 22.9411C36.2756 22.9411 36.274 22.9405 36.2724 22.9405L34.6583 19.266L35.2293 19.3539L35.8282 18.8483L36.2575 17.9376C36.3316 17.789 36.2864 17.0984 36.2864 16.8766C35.9534 16.8105 34.113 16.4388 33.9683 16.4582L32.6593 17.0456V16.2879L30.3435 16.1052V16.113L29.5462 16.8579L29.0352 16.8456V16.064L26.7186 16.0662V16.8511L26.2146 16.8658L25.4104 16.113L23.0939 16.3003V17.047L21.7855 16.4659C21.6338 16.4465 19.8066 16.8105 19.4689 16.8751C19.4689 17.0969 19.4239 17.7852 19.4963 17.9337C20.0338 19.0343 19.6439 18.6315 20.5992 19.3385L21.0456 19.2709L19.4667 22.9738C19.4566 23.0027 19.4627 22.9934 19.4556 22.994L19.4606 23.0454L19.6978 23.0113L19.7279 22.9599H19.7164L20.0835 22.1151L20.0951 22.1137L21.5731 21.9392L21.3709 22.7343L21.3623 22.7607L21.349 22.9147H21.5412L21.6361 22.5405L21.7949 21.9168C22.1612 21.8803 22.5267 21.8469 22.8922 21.818L22.8659 22.1106L23.496 22.0598C23.7308 22.0414 23.9666 22.0358 24.2015 22.0134L24.6255 21.9737L24.6589 21.703C25.0168 21.685 25.3738 21.6703 25.7301 21.6587L25.6748 22.2358L25.6523 22.5103H25.8591L25.8692 22.4177C25.8677 22.4177 25.8724 22.3943 25.8716 22.3943V22.3937L25.9425 21.6525L26.4844 21.6383L26.5172 21.4299L24.6845 21.5069C24.7156 21.2579 24.7492 21.0099 24.7802 20.7626L26.7435 20.6746C26.5189 21.1562 26.4643 21.7807 26.4137 22.2691L26.3942 22.4676H26.6059L26.6151 22.3641V22.3648C26.7038 21.5247 26.7591 20.1324 27.8777 20.1324Z" fill="#77522F"/>
<path d="M24.6433 34.3381H24.0801V34.8818H24.6433V34.3381Z" fill="#495961"/>
<path d="M24.0518 38.198C23.3812 39.3825 24.338 40.333 25.7522 41.4374C24.7533 41.6411 23.848 41.9368 23.1456 42.4316C22.139 40.4069 22.5778 39.0177 24.0518 38.198ZM25.4116 42.7777C25.5166 42.6771 25.5166 42.5769 25.4116 42.4759H24.9541L24.958 42.4502V42.2021C24.958 42.1435 24.9097 42.097 24.8507 42.097H24.598C24.5395 42.097 24.4912 42.1435 24.4912 42.2021V42.4502L24.4959 42.4759H23.456C24.1514 42.0441 25.0024 41.8023 25.795 41.6396L26.2353 41.5503L25.8828 41.2755C25.2584 40.7873 24.1358 39.9223 24.0494 39.0783C24.0207 38.8007 24.0992 38.5409 24.2354 38.2992L24.601 37.6552L23.9491 38.0168C22.1039 39.0441 22.0854 40.739 22.9332 42.4759H22.6665V42.3197H22.3101V42.4759H21.9088C21.8038 42.5583 21.8038 42.6578 21.9088 42.7777C23.0344 42.9636 24.2035 42.9636 25.4116 42.7777Z" fill="#495961"/>
<path d="M30.0706 31.45C30.0177 31.447 29.971 31.4874 29.9671 31.5426C29.9632 31.5987 30.0035 31.6469 30.0565 31.65C30.1102 31.6546 30.1561 31.6134 30.1599 31.5582C30.1645 31.5029 30.1242 31.4549 30.0706 31.45Z" fill="#495961"/>
<path d="M27.8811 54.9698C25.823 51.038 13.4737 48.7273 13.4737 42.8291C13.4737 36.9312 19.7121 32.5957 13.5373 28.6647L17.591 23.5134C24.8585 22.2908 31.7114 22.2837 38.1715 23.5134L42.2251 28.6647C36.0503 32.5957 42.2879 36.9312 42.2879 42.8291C42.2879 48.7273 29.9395 51.038 27.8811 54.9698ZM39.7949 32.3243C39.9706 30.7587 41.0784 29.6835 42.3596 28.8685L42.5867 28.723L38.3093 23.2925L38.2191 23.2745C37.7072 23.1782 37.1953 23.0886 36.6835 23.0077C35.1225 22.797 34.0186 22.657 33.0518 22.5621C32.7871 22.5388 32.5228 22.5179 32.2582 22.4985L32.2317 22.4967L31.993 22.4797L31.9292 22.4751L31.8661 22.4711C31.2766 22.4329 30.6863 22.4034 30.0951 22.384H30.0895V22.3825C30.0203 22.38 29.9496 22.3778 29.8779 22.3764V22.3769C29.8198 22.3754 29.7598 22.3739 29.7007 22.3723C27.5383 22.3264 25.6261 22.4003 24.2656 22.4834C23.7944 22.5115 20.7458 22.8157 20.1787 22.8834L20.0864 22.8952C19.3947 22.9898 17.9729 23.2099 17.4533 23.2917L13.1758 28.723L13.4029 28.8685C14.6833 29.6835 15.7917 30.7587 15.9675 32.3243C16.1401 33.8587 15.3117 35.6456 14.7313 37.0422C13.9528 38.9177 13.2272 40.7679 13.2272 42.8291C13.2272 43.2726 13.2933 43.7079 13.4254 44.1313C13.8501 45.5024 14.908 46.6052 16.0211 47.482C17.3193 48.5047 18.8262 49.3426 20.2869 50.118C21.8053 50.923 23.378 51.6844 24.8444 52.5774C25.8215 53.1732 27.1228 54.052 27.6619 55.0803L27.8811 55.5002L28.1006 55.0803C28.6397 54.052 29.941 53.1732 30.918 52.5774C32.3842 51.6844 33.9563 50.923 35.4754 50.118C36.9362 49.3426 38.443 48.5047 39.7405 47.482C40.8544 46.6052 41.9115 45.5024 42.3378 44.1313C42.4685 43.7079 42.5353 43.2726 42.5353 42.8291C42.5353 40.7679 41.8096 38.9177 41.0311 37.0422C40.4507 35.6456 39.6215 33.8587 39.7949 32.3243Z" fill="#495961"/>
<path fill-rule="evenodd" clip-rule="evenodd" d="M21.7773 17.2424L22.6789 17.1256L21.7773 16.7337V17.2424Z" fill="#EEDCB8"/>
<path d="M38.2352 46.7784L34.5379 43.1315C37.2683 38.5719 36.5791 31.21 32.4518 28.0513C31.12 27.0316 29.5558 26.5455 27.8732 26.5455C24.9261 26.5455 22.7612 28.0126 21.382 30.1576L17.1637 25.998L18.2597 24.6267C24.6389 23.5985 31.1099 23.4647 37.4797 24.6158L40.5253 28.4245C39.3708 29.3846 38.5128 30.5892 38.3361 32.1573C38.1262 34.0225 38.9507 35.8978 39.6522 37.5873C40.3478 39.2609 41.0472 40.9862 41.0472 42.8234C41.0472 44.3508 39.7481 45.6957 38.2352 46.7784ZM28.2535 30.2828C27.8701 30.1723 27.8857 30.1824 28.2763 30.1747C28.9677 30.1616 29.6437 30.2238 30.2925 30.4579C30.5732 30.5581 30.8486 30.692 31.1178 30.8656L31.0742 30.864L31.0455 30.8616L30.2559 31.0233C29.6499 30.6142 28.96 30.4867 28.2535 30.2828ZM30.0925 31.2683L31.0594 31.0692C31.632 31.1088 32.304 30.6391 32.5761 30.5886C32.6368 30.5761 32.7294 30.6382 32.7621 30.7044L32.1911 30.9721L32.2628 31.1213L32.882 30.8281C32.9543 30.8849 32.9971 30.9923 32.9869 31.052L32.3226 31.2115L32.3601 31.3733L33.0623 31.21C33.0786 31.2738 33.0734 31.3484 33.0211 31.3819C32.7109 31.581 32.2986 31.5902 31.9701 31.7341C32.0948 32.2281 32.4191 32.7912 32.4035 33.3008C32.4013 33.3543 32.3974 33.4065 32.3918 33.4602L32.0301 32.7081L31.8776 32.7795L32.349 33.7432C32.314 33.9207 32.2644 34.0964 32.2084 34.2706L31.8388 33.0192L31.6779 33.065L32.1173 34.5413C31.9952 34.8927 31.866 35.2399 31.8037 35.5866C31.7517 35.8783 31.803 35.9429 31.7415 35.6053C31.5674 34.6339 31.5572 32.9173 31.1015 32.2788C30.9163 32.1613 30.7078 32.0625 30.4783 31.9823C30.3562 31.9341 30.1811 31.9001 29.9485 31.882C29.8232 31.9148 29.5878 31.9652 29.4625 31.9994C29.5037 31.7668 29.6521 31.2139 30.0925 31.2683ZM35.5672 34.6244C35.3626 34.5912 35.1586 34.5499 34.9558 34.5102C34.7207 34.465 34.4813 34.4183 34.2424 34.3896C34.1523 34.3788 34.0619 34.3819 33.9717 34.399C33.5399 34.4798 33.1737 34.9022 32.8881 35.2057C32.4478 35.673 32.034 36.0798 31.4803 36.4229L31.1488 36.6009L27.8648 36.5621C28.291 35.6131 29.5777 34.105 30.2566 34.213C30.5872 34.266 31.0299 34.4013 31.3913 34.4875C31.4304 34.8734 31.467 35.2638 31.5347 35.6404C31.5587 35.7765 31.5495 36.0478 31.7828 36.0393C32.0123 36.0315 31.9866 35.7586 32.0108 35.6223C32.0869 35.2001 32.2487 34.8019 32.3862 34.3928C33.2211 33.8484 33.2522 32.1877 34.8687 32.1699C34.9167 32.1689 34.966 32.1736 35.014 32.1816C35.3118 32.9607 35.5291 33.79 35.6643 34.6401L35.5672 34.6244ZM35.8332 36.5971L35.8325 36.5977H35.8332V36.5986H35.8315H35.8158H31.5923C33.0188 35.7158 33.4442 34.5047 34.2182 34.5958C34.6594 34.6472 35.2856 34.8004 35.6956 34.8533V34.8525L35.6962 34.8533C35.7779 35.4226 35.8238 36.0028 35.8332 36.5823V36.5971ZM29.7121 40.1655L29.5355 40.4759L29.3816 40.5069L29.7121 40.1655ZM30.0965 38.4186L29.8693 38.0583L30.0155 38.1183L30.0965 38.4186ZM32.7527 38.4186L32.8282 38.1372L32.9644 38.0818L32.7527 38.4186ZM33.1891 40.1655L33.5205 40.5069L33.3664 40.4759L33.1891 40.1655ZM31.8739 42.9064C31.8597 42.4742 31.8459 42.0415 31.8311 41.6099L31.9795 41.2702L31.9733 41.7452L32.1407 41.7477L32.1475 41.295L32.3109 41.7219L32.4681 41.6636L32.2945 41.2101L32.6198 41.5476L32.742 41.4335L32.686 41.3766L32.7341 40.8873L32.8624 41.3618L33.025 41.3197L32.9005 40.8563L33.1753 41.2467L33.3137 41.1517L33.0063 40.7178L33.4304 40.9862L33.5205 40.8471L33.1239 40.595L33.2577 40.6231L33.3058 40.7077L33.403 40.6533L33.5837 40.6898L33.6184 40.5274L33.5695 40.5179L33.6707 40.4215L33.2639 40.0014L33.7617 40.2886L33.8473 40.1461L33.2996 39.8311L33.9111 39.9664L33.9477 39.8047L33.4442 39.6926L33.96 39.6748L33.9544 39.5098L33.3782 39.5295L33.9313 39.3503L33.8791 39.1935L33.33 39.3707L33.6092 39.1839H33.6107V39.1833L33.8177 39.0449L33.7237 38.9079L33.5703 39.0098L33.1605 38.946L33.6941 38.8876L33.6754 38.7227L33.0709 38.7889L33.6169 38.5547L33.5494 38.4023L33.0002 38.6381L33.4528 38.2513L33.3424 38.1269L32.8921 38.5113L33.2133 38.0009L33.0709 37.9138L33.0648 37.9248L33.042 37.871L32.8811 37.9365L32.9045 37.8494L32.8454 37.8344L32.955 37.7543L32.8546 37.6206L32.3303 38.0041L32.7193 37.5039L32.5856 37.4036L32.1616 37.9483L32.3942 37.3109L32.2363 37.2543L32.0404 37.7916L32.0914 37.2233L31.9243 37.2085L31.8683 37.8361L31.7432 37.2123L31.5782 37.2448L31.7019 37.8624L31.5043 37.4845L31.5782 37.3436L31.428 37.2676L31.4095 37.3023L31.404 37.2915L31.2547 37.3678L31.3153 37.4845L31.1301 37.8393L31.2538 37.2218L31.0898 37.1898L30.9645 37.8119L30.9086 37.185L30.7412 37.1998L30.791 37.7675L30.5959 37.2309L30.4378 37.2869L30.6703 37.9255L30.2473 37.3794L30.1134 37.4805L30.5017 37.9799L29.9765 37.5974L29.8777 37.7302L30.0146 37.8306L29.9439 37.8494L29.9626 37.9168L29.7907 37.8476L29.7573 37.9271L29.6343 38.0009L29.9564 38.5113L29.5059 38.1269L29.3964 38.2513L29.849 38.6381L29.2998 38.4023L29.2321 38.5547L29.7782 38.7889L29.1738 38.7227L29.1552 38.8876L29.6887 38.946L29.3225 39.0028L29.1777 38.9079L29.0844 39.0449L29.2314 39.1435L29.2376 39.1839L29.2819 39.1768L29.5712 39.3707L29.0229 39.1935L28.9709 39.3503L29.5239 39.5295L28.9474 39.5098L28.9413 39.6748L29.4577 39.6926L28.9545 39.8047L28.9902 39.9664L29.6026 39.8311L29.0557 40.1461L29.1397 40.2886L29.639 40.0014L29.2314 40.4215L29.3317 40.5179L29.2835 40.5274L29.3186 40.6898L29.4982 40.6533L29.5962 40.7077L29.6444 40.6231L29.7782 40.595L29.3816 40.8471L29.4725 40.9862L29.8949 40.7178L29.5884 41.1517L29.7269 41.2467L30.0014 40.8563L29.8777 41.3197L30.0395 41.3618L30.1672 40.8873L30.2171 41.3766L30.1601 41.4335L30.2823 41.5476L30.6067 41.2101L30.4331 41.6636L30.591 41.7219L30.7554 41.295L30.7606 41.7477L30.9279 41.7452L30.9224 41.2702L31.0547 41.5726L31.019 42.6335C29.9962 42.2951 29.0244 41.9055 28.3455 41.197C26.7928 39.576 27.0543 38.0881 27.699 36.9703L27.7014 36.9674L27.703 36.9642L27.7051 36.9611L27.7076 36.958L27.7092 36.9549L27.7098 36.951L27.7115 36.9478L27.7137 36.9448L27.7162 36.9423L27.7177 36.9384L27.7199 36.9347L27.7215 36.9315L27.7223 36.9307L27.724 36.9291L27.7248 36.9284L27.7519 36.8807L27.7543 36.8786V36.8762L27.7565 36.8716H27.7574L27.7596 36.8685L27.7876 36.8226L27.7885 36.8217L27.7907 36.818L27.8165 36.7783L27.818 36.7743L27.8196 36.7721L27.8218 36.7681L28.2008 36.7737L35.8325 36.8623V36.8598H35.8332V36.8623C35.8208 39.3396 35.1471 41.8083 33.8067 43.6524C33.2125 43.3443 32.5459 43.1212 31.8739 42.9064ZM30.9442 40.784C30.99 40.6064 31.0369 40.4455 31.0981 40.2908L31.068 41.1837L30.9319 40.8726L30.9294 40.8376L30.9442 40.784ZM30.3057 40.3904C30.479 40.175 30.6735 40.0006 30.9007 39.8676L30.591 40.1734L30.7101 40.2908L31.0991 39.9082C30.9403 40.1796 30.8571 40.4448 30.7753 40.7707L30.7747 40.7723L30.7606 40.808L30.7335 40.8376L30.3694 41.2171L30.2971 40.4876L30.2947 40.4348L30.3057 40.3904ZM30.1531 39.7323L30.178 39.7005L30.21 39.6808C30.3913 39.6243 30.5818 39.5923 30.7723 39.5837L30.3515 39.723L30.4051 39.881L30.7467 39.7665C30.5196 39.9114 30.322 40.0972 30.1454 40.3203L30.1282 40.339L30.115 40.3569L29.7534 40.4307L30.1531 39.7323ZM30.259 39.0236L30.3057 39.0153L30.3476 39.0286L30.8206 39.2563L30.35 39.1768L30.3211 39.3403L30.777 39.4175C30.5623 39.4266 30.3506 39.4618 30.1478 39.5255L30.126 39.5295L30.1018 39.5246L29.5247 39.1396L30.259 39.0236ZM30.1571 37.9955L30.1368 37.9208L30.3438 38.0716L30.1571 37.9955ZM31.1821 39.0572L30.7233 38.5904L30.602 38.7058L31.2071 39.3217L31.2018 39.3202C30.9707 39.1242 30.6603 38.9732 30.4098 38.8759L30.3818 38.8371L30.2107 38.1962L30.8362 38.4488L30.8766 38.4676L30.899 38.4987C31.0205 38.6769 31.1132 38.8635 31.1821 39.0572ZM31.7874 38.4405C31.6809 38.6014 31.5976 38.7671 31.5314 38.9396V38.3368H31.3634L31.3627 39.0697C31.2889 38.8418 31.1861 38.6248 31.0461 38.4163L31.0399 38.3734L31.4095 37.6649L31.7929 38.3968L31.7951 38.4209L31.7874 38.4405ZM31.7237 43.4923L31.7308 43.7576L31.1628 43.3357L31.1722 43.0831L31.7237 43.4923ZM31.708 42.961L31.7151 43.2271L31.1799 42.828L31.1886 42.576L31.708 42.961ZM31.6902 42.4283L31.6994 42.6941L31.1979 42.3217L31.2055 42.0689L31.6902 42.4283ZM31.6723 41.8955L31.6809 42.1622L31.215 41.8144L31.2234 41.5618L31.6723 41.8955ZM31.6545 41.3618L31.6631 41.6286L31.232 41.3082L31.2406 41.0545L31.6545 41.3618ZM31.6381 40.8305L31.6459 41.095L31.2493 40.8009L31.2585 40.5475L31.6381 40.8305ZM31.2843 39.7867L31.2911 39.555L31.3022 39.5408L31.6086 39.7698L31.6148 40.0334L31.2843 39.7867ZM31.6219 40.2984L31.6296 40.5637L31.2662 40.2939L31.2748 40.0402L31.6219 40.2984ZM31.5067 44.3712H31.1574L31.1279 44.3502L31.1372 44.0973L31.5067 44.3712ZM31.1449 43.8422L31.155 43.5896L31.7376 44.0235L31.744 44.2863L31.1449 43.8422ZM32.633 38.2156L32.4666 38.8371L32.4626 38.8635L32.4385 38.8759C32.2145 38.9639 31.9431 39.0928 31.7222 39.2609L32.2496 38.662L32.1228 38.5531L31.6591 39.0791C31.7267 38.8854 31.8154 38.7008 31.9336 38.5221L31.9586 38.487L31.9952 38.473L32.633 38.2156ZM32.6866 38.0151L32.489 38.095L32.7085 37.9341L32.6866 38.0151ZM32.8002 39.5246L32.7761 39.5316L32.7552 39.5255C32.5506 39.4569 32.3351 39.4236 32.118 39.4175L32.574 39.3403L32.545 39.1768L32.01 39.2673C32.1694 39.1716 32.3413 39.0938 32.4835 39.0369L32.5288 39.0159L32.5909 39.0236L33.3673 39.1458L32.8002 39.5246ZM32.1592 39.7634L32.4929 39.8716L32.545 39.7153L32.1422 39.5837C32.3303 39.5923 32.5155 39.6227 32.6921 39.6787L32.7278 39.6975L32.7488 39.7323L33.1478 40.4307L32.7878 40.3569L32.787 40.3554L32.7816 40.3476C32.6042 40.105 32.3989 39.912 32.1592 39.7634ZM31.9701 40.8726L31.8178 41.2209C31.8068 40.8983 31.7976 40.5762 31.789 40.2534C31.8591 40.4368 31.9057 40.6283 31.9631 40.84L31.9695 40.8516L31.9701 40.8726ZM31.8536 39.9812L32.1694 40.3034L32.2899 40.189L31.9376 39.8289C32.1952 39.9633 32.4128 40.1445 32.5988 40.3825L32.6121 40.4316L32.605 40.4876L32.5327 41.2171L32.1694 40.8376L32.128 40.8096L32.1117 40.7504C32.0354 40.4674 31.9742 40.2215 31.8536 39.9812ZM27.8679 46.6891C28.5563 45.2376 28.031 43.7731 27.3279 42.3838C26.9235 41.5849 26.4606 40.8096 26.1364 40.0784C25.9247 39.5993 25.6984 38.9833 25.7855 38.4426C25.8477 38.0568 26.0802 37.6928 26.4117 37.4876C26.6955 37.3109 26.9647 37.181 27.2798 37.066L27.2813 37.0654L27.3131 37.0537L27.4368 37.011C26.6185 38.5477 26.9251 40.0154 28.1937 41.3393C28.9148 42.093 29.9439 42.4976 31.011 42.8474L30.9536 44.536H31.9172L31.9127 44.3671C31.9049 43.9535 31.8933 43.5388 31.8801 43.125C32.5109 43.3273 33.1294 43.5388 33.6808 43.8204C32.3568 45.5518 30.4215 46.692 27.8701 46.692H27.8679V46.6891ZM25.4899 35.2795V36.5426H24.6491V35.8534C24.6491 35.6653 24.5208 35.4925 24.3448 35.4925C24.1691 35.4925 24.0407 35.6653 24.0407 35.8534V36.5426H23.2225V35.2795H25.4899ZM25.4899 35.0656H23.2225V34.0857H25.4899V35.0656ZM24.7346 32.9702H23.9777L24.0035 32.5487H24.7082L24.7346 32.9702ZM24.9338 32.3432H23.7632V31.9598H24.9338V32.3432ZM24.2392 31.7552H23.966V31.5025H24.2392V31.7552ZM24.73 31.5025V31.7552H24.4639L24.4624 31.5025H24.73ZM24.1761 30.6329C24.1761 30.5427 24.25 30.4696 24.3418 30.4696C24.4328 30.4696 24.5075 30.5427 24.5075 30.6329L24.5066 30.6499C24.4537 30.6382 24.4001 30.6351 24.3479 30.6351C24.2919 30.6351 24.2344 30.64 24.1776 30.6514L24.1761 30.6329ZM24.3479 30.8397H24.3488C24.6476 30.8397 24.8932 31.0209 24.8932 31.2434V31.2972H23.8035V31.2434C23.8035 31.0209 24.0485 30.8397 24.3479 30.8397ZM23.8697 33.4936V33.1749H24.194V33.4936H24.5184V33.1749H24.8428V33.4936H25.1664V33.1749H25.4899V33.4936V33.8709H23.2225V33.4936V33.1749H23.546V33.4936H23.8697ZM19.9056 36.7698L19.915 36.7688H19.9671L20.1147 36.7698L20.1055 36.7688C22.3217 36.7688 25.2036 36.7681 27.5137 36.7681C27.254 36.8491 27.0247 36.9368 26.8231 37.0303L26.7632 37.059C26.701 37.0902 26.641 37.1196 26.5851 37.1509C26.5182 37.1887 26.4546 37.2263 26.3946 37.2661V37.2667C25.7963 37.6566 25.563 38.1316 25.5569 38.6729C25.5544 38.915 25.5981 39.1707 25.6741 39.4376L25.675 39.4406L25.6999 39.5246L25.7037 39.5341C25.7333 39.6289 25.7676 39.7255 25.8041 39.8233C25.9262 40.1422 26.0757 40.4511 26.229 40.7566C26.3416 40.976 26.4575 41.1944 26.5742 41.4116C27.0838 42.3628 27.647 43.3591 27.874 44.4241C28.0079 45.0539 28.0163 45.7004 27.7938 46.3196L27.7932 46.3226L27.79 46.3312C27.7658 46.3989 27.7388 46.4657 27.7092 46.5327C27.6867 46.5832 27.6624 46.6353 27.6368 46.685H27.6322L27.6282 46.6844H27.6252C27.4276 46.6788 27.2307 46.6657 27.0346 46.6454C25.9761 46.535 24.9469 46.202 24.0377 45.6352C21.1028 43.8065 19.8052 40.0596 19.9064 36.7798V36.7758L19.9056 36.7698ZM28.6013 26.8778C28.6261 26.8792 28.6557 26.883 28.6884 26.8895C29.2874 26.9507 29.8481 27.0774 30.3718 27.2643C30.374 27.2651 30.3765 27.2651 30.378 27.2658C30.4269 27.283 30.4806 27.3039 30.5405 27.3272C30.5491 27.3303 30.5578 27.3335 30.5678 27.3374H30.567C30.6215 27.359 30.6815 27.3839 30.7472 27.412V27.4105C30.7614 27.4166 30.7738 27.423 30.7871 27.4283C30.8033 27.4362 30.8199 27.4423 30.8378 27.451C30.8494 27.4548 30.8634 27.4619 30.8797 27.4696C31.4117 27.7099 31.9018 28.0132 32.3484 28.3695C32.3545 28.3741 32.3592 28.3772 32.3616 28.3795C32.4324 28.4357 32.5373 28.5233 32.6533 28.6261L32.654 28.6271C32.6829 28.6526 32.7124 28.6791 32.742 28.7061C32.7521 28.7156 32.7605 28.7243 32.7691 28.7326C33.2217 29.1542 33.6249 29.6336 33.9771 30.1591C33.9779 30.16 33.9788 30.16 33.9794 30.1606C33.9818 30.1655 33.985 30.1686 33.988 30.1732L34.0052 30.2004L34.0043 30.2012C34.0433 30.2612 34.083 30.3209 34.1086 30.3607V30.3599C34.0945 30.3382 34.0806 30.3148 34.0658 30.293L34.1095 30.3599H34.1086L34.1157 30.3714C34.1209 30.3785 34.1249 30.3862 34.128 30.3912V30.3917C34.437 30.8833 34.7037 31.4108 34.9278 31.9637L34.8662 31.9622C33.9366 31.9723 33.4738 32.4561 33.1309 32.9902C33.1199 33.0075 33.0266 33.1724 32.9629 33.2751C32.8097 33.5394 32.6703 33.797 32.5069 33.9953C32.5394 33.8662 32.5675 33.7355 32.5872 33.6025C32.5949 33.5426 32.6021 33.4828 32.6066 33.4229C32.6081 33.345 32.6128 33.2066 32.6128 33.2066C32.5988 32.7345 32.3669 32.3068 32.2253 31.861C32.5281 31.7661 32.8383 31.746 33.1362 31.5561C33.3168 31.4394 33.3137 31.1712 33.2001 31.0102C33.2001 31.0102 33.183 30.9089 33.1658 30.8686C33.1534 30.8422 33.123 30.7953 33.0989 30.7588C33.0602 30.7074 33.0126 30.6632 32.958 30.6329C32.8897 30.4757 32.7075 30.3513 32.5365 30.3841C32.3974 30.4104 32.2309 30.4951 32.1017 30.5559C31.933 30.6367 31.7625 30.7145 31.5852 30.7752C31.5347 30.7932 31.4803 30.8095 31.4259 30.8234C31.2328 30.6849 31.0314 30.5621 30.8181 30.4563H30.819C30.7513 30.4221 30.6766 30.3887 30.5568 30.3382C30.4946 30.3124 30.4301 30.2859 30.3654 30.2634C29.9285 30.1046 29.4795 30.0216 29.0229 29.9874L29.0244 29.9859C28.8729 29.9741 28.7266 29.9717 28.5151 29.9662C28.4333 29.9656 28.3531 29.9656 28.2716 29.9671C28.1067 29.9711 27.7987 29.9304 27.7666 30.1631C27.734 30.3948 28.0375 30.436 28.1945 30.4819C28.2016 30.4834 28.2085 30.4852 28.2138 30.4874C28.3415 30.5209 28.2535 30.4983 28.6636 30.6096C28.6636 30.6096 28.6636 30.6102 28.6643 30.6102C29.1117 30.7301 29.5378 30.8514 29.9253 31.0653C29.6927 31.1049 29.5247 31.273 29.4219 31.5025L29.3776 31.6069C29.3263 31.7357 29.2897 31.8835 29.2649 32.0065L29.2657 32.005L29.2213 32.2656L29.5402 32.1776C29.6733 32.1426 29.8327 32.124 29.9673 32.0905C30.1057 32.1044 30.2762 32.1255 30.399 32.1752L30.4035 32.1767L30.4091 32.1776C30.5171 32.2164 30.623 32.2607 30.7273 32.3106C30.7359 32.3137 30.7443 32.3166 30.7522 32.3207C30.8883 32.3822 30.9396 32.4233 30.9667 32.4592L30.9692 32.4576C30.9731 32.4647 30.9769 32.4709 30.9808 32.4769C30.9815 32.4801 30.9831 32.4825 30.9847 32.4846C30.9855 32.4855 30.9861 32.488 30.9871 32.4902C31.1526 32.7936 31.2461 33.3 31.3037 33.7222V33.7246C31.3044 33.7325 31.3059 33.7417 31.3074 33.7518C31.3074 33.7541 31.3083 33.7558 31.3083 33.7581C31.3144 33.8047 31.3231 33.8769 31.3323 33.9533H31.3332C31.3419 34.0312 31.3502 34.1034 31.3572 34.1672L31.3689 34.2714C31.2483 34.241 31.1332 34.2093 31.047 34.186C31.0126 34.1758 30.9823 34.168 30.9615 34.1626C30.9599 34.1617 30.9581 34.161 30.9566 34.161L30.9371 34.1564C30.8331 34.1284 30.6199 34.0761 30.5055 34.0505C30.4331 34.0349 30.3624 34.0201 30.2909 34.0085C29.9595 33.9565 29.6047 34.1688 29.3542 34.3585C29.2749 34.4192 29.1964 34.483 29.12 34.5505C28.8696 34.7872 28.731 34.9294 28.5905 35.0952C28.5616 35.1278 28.535 35.1604 28.5089 35.1931C28.375 35.3556 28.2615 35.5065 28.1347 35.6833C28.0809 35.7593 28.0288 35.8371 27.9783 35.9155L27.9768 35.9165C27.9122 36.0198 27.8577 36.114 27.818 36.1863C27.7488 36.3125 27.6867 36.4376 27.6368 36.5613H27.6291H27.5137H27.3203H27.1257H27.0681H26.9998L26.7266 36.5621H26.5238H26.3843H26.2865H26.088H26.0134H26.0095H25.6984V34.5669V34.4069V34.1647V33.8204V33.3185V32.9702H25.227H25.0309H24.943L24.9173 32.5487H24.9842H25.1141H25.1421V32.4056V31.7552H24.9469V31.5025H25.1018V31.2434C25.1018 30.9899 24.9268 30.8047 24.7067 30.7099L24.7153 30.6329C24.7153 30.4696 24.6079 30.332 24.4592 30.2837C24.4251 30.2741 24.39 30.2689 24.3559 30.2689C24.3192 30.2689 24.2896 30.2705 24.2648 30.272V30.2726C24.0959 30.3077 23.9691 30.4554 23.9691 30.6329L23.9777 30.7139C23.7632 30.8117 23.595 30.9938 23.595 31.2434V31.5025H23.7506V31.7552H23.556V32.5487H23.6269H23.7693H23.7949L23.7693 32.9702H23.7132H23.5164H23.0147V33.2392V33.7333V34.196V34.4401V36.5635V36.5644H22.4452H21.4537V36.5651H19.9095C19.9102 36.5162 19.9127 36.4678 19.9135 36.4181C19.9079 36.3777 19.9056 36.3193 19.9095 36.2331C19.9203 36.0401 19.9283 35.9881 19.9476 35.754L19.9467 35.7531C19.9499 35.7158 19.9529 35.6801 19.9563 35.6426C19.9585 35.6155 19.9609 35.5866 19.9632 35.5549C19.9951 35.1386 20.016 35.0134 20.0776 34.63C20.0877 34.5669 20.0978 34.5072 20.108 34.4496V34.4487C20.1576 34.1585 20.2075 33.9361 20.2549 33.7293C20.2797 33.6195 20.3022 33.5318 20.3249 33.4432C20.3281 33.433 20.3311 33.4229 20.3335 33.4121C20.3615 33.3078 20.3917 33.198 20.4338 33.0487C20.4813 32.8777 20.5311 32.7283 20.5871 32.5672C20.626 32.4529 20.6671 32.3385 20.709 32.2266C20.7129 32.2164 20.7161 32.2063 20.7207 32.1954C20.8422 31.861 20.8616 31.8097 21.0133 31.4978C21.0219 31.4815 21.0296 31.4644 21.0383 31.4465C21.2048 31.0917 21.3882 30.7512 21.5912 30.4244C21.5921 30.4221 21.5928 30.4206 21.5936 30.419C21.7088 30.2004 21.9202 29.9219 22.1178 29.6692C22.1489 29.6286 22.1802 29.5884 22.2118 29.5486C22.2206 29.5378 22.2291 29.5269 22.2377 29.516C22.4609 29.2289 22.6483 29.0267 22.9019 28.7951C22.9074 28.7895 22.9136 28.7849 22.9207 28.7794C23.2481 28.4683 23.6028 28.1892 23.9831 27.9448C23.9902 27.9393 23.9996 27.9338 24.0066 27.9292C24.2601 27.7606 24.1481 27.8414 24.4476 27.6719C24.4943 27.6455 24.5316 27.6267 24.5636 27.6125C24.964 27.4083 25.3904 27.2409 25.8422 27.1156C25.8508 27.1126 25.86 27.1102 25.8664 27.1079C26.0811 27.0448 26.2514 27.0114 26.4194 26.9812C26.8792 26.8932 27.3623 26.8473 27.8701 26.8473C27.8888 26.8473 27.9215 26.8482 27.9603 26.8488C28.0608 26.8497 28.1495 26.8535 28.2692 26.8591C28.3244 26.8615 28.3656 26.863 28.3725 26.863L28.372 26.8651C28.4379 26.8676 28.5126 26.8722 28.6013 26.8778ZM34.7659 48.8288C33.2187 49.6492 31.6241 50.4239 30.1306 51.3332C29.3746 51.7944 28.5554 52.3443 27.8748 52.9978C27.1934 52.3443 26.3742 51.7944 25.6182 51.3332C24.1247 50.4239 22.5301 49.6492 20.9837 48.8288C19.0283 47.7928 15.5284 45.9352 14.8355 43.7007C14.7461 43.4145 14.7016 43.1219 14.7016 42.8234C14.7016 40.9862 15.4025 39.2609 16.0964 37.5873C16.7972 35.8978 17.6226 34.0225 17.4133 32.1573C17.2366 30.5892 16.3788 29.3846 15.2244 28.4245L16.9536 26.2601L21.2016 30.4492C18.5078 34.9878 19.1519 42.261 23.2077 45.4358C24.5572 46.4931 26.1533 46.9923 27.8732 46.9923C30.8181 46.9923 32.9783 45.5447 34.356 43.4222L37.9574 46.9744C36.8289 47.746 35.6208 48.3744 34.7659 48.8288ZM39.8812 37.4954C39.199 35.8519 38.3774 33.9983 38.5814 32.1847C38.7479 30.7053 39.5513 29.5517 40.6838 28.6107L40.8675 28.4596L37.6175 24.3924L37.5258 24.3762C31.1301 23.2213 24.6202 23.3559 18.22 24.3879L18.1245 24.4036L14.8829 28.4596L15.065 28.6107C16.1975 29.5517 17.0003 30.7053 17.1668 32.1847C17.3713 33.9983 16.5497 35.8519 15.8679 37.4954C15.1583 39.2026 14.4551 40.9495 14.4551 42.8234C14.4551 43.1453 14.5041 43.4634 14.5991 43.7705C15.3185 46.0899 18.8134 47.9537 20.8663 49.0427C22.4135 49.8632 23.994 50.6291 25.4883 51.5399C26.2668 52.0154 27.0447 52.5402 27.7021 53.171L27.8748 53.3375L28.0475 53.171C28.7049 52.5402 29.4819 52.0154 30.2615 51.5399C31.7563 50.6291 33.3362 49.8632 34.8826 49.0427C37.1105 47.8612 41.2937 45.6964 41.2937 42.8234C41.2937 40.9495 40.5897 39.2026 39.8812 37.4954Z" fill="#495961"/>
<path d="M50.4821 55.902C51.0984 55.902 51.5617 55.5802 51.5617 55.0489C51.5617 54.3917 50.9635 54.2501 50.4643 54.0777C50.1825 53.9788 49.9418 53.8871 49.9418 53.6376C49.9418 53.4152 50.1593 53.2659 50.468 53.2659C50.7911 53.2659 51.0316 53.4293 51.1899 53.6145H51.2259L51.4935 53.334V53.2931C51.2903 53.0344 50.9222 52.8439 50.459 52.8439C49.8467 52.8439 49.4286 53.1887 49.4286 53.6698C49.4286 54.187 49.8776 54.3827 50.2275 54.5048C50.6636 54.663 51.0444 54.7043 51.0444 55.0579C51.0444 55.2947 50.822 55.4671 50.4502 55.4671C50.1504 55.4671 49.8054 55.2897 49.592 55.017H49.5508L49.2793 55.2985V55.3397C49.5418 55.6936 49.9959 55.902 50.4821 55.902ZM54.3576 53.3252V52.898H52.3107V55.848H54.3613V55.4209H52.8137V54.5678H54.0308V54.16H52.8137V53.3252H54.3576ZM56.4047 55.902C56.927 55.902 57.3581 55.6704 57.6345 55.3216V55.2806L57.3169 55.0258H57.281C57.0814 55.2857 56.7674 55.4491 56.4137 55.4491C55.8192 55.4491 55.356 54.9988 55.356 54.3722C55.356 53.7469 55.8192 53.2967 56.4137 53.2967C56.7674 53.2967 57.0814 53.46 57.281 53.7188H57.3169L57.6345 53.4655V53.4242C57.3541 53.0703 56.918 52.8439 56.4097 52.8439C55.5337 52.8439 54.848 53.4974 54.848 54.3722C54.848 55.2484 55.5337 55.902 56.4047 55.902ZM59.9635 54.604C60.3584 54.4869 60.5899 54.2052 60.5899 53.7922C60.5899 53.2337 60.2131 52.898 59.5056 52.898H58.3206V55.848H58.8235V54.663H59.4589L60.0908 55.848H60.5849L60.608 55.8067L59.9635 54.604ZM58.8235 53.3252H59.5505C59.8772 53.3252 60.0766 53.5194 60.0766 53.8051C60.0766 54.0919 59.8772 54.2913 59.5505 54.2913H58.8235V53.3252ZM63.4219 53.3252V52.898H61.3751V55.848H63.4257V55.4209H61.878V54.5678H63.0952V54.16H61.878V53.3252H63.4219ZM65.3237 53.3252H66.277V52.898H63.8671V53.3252H64.8206V55.848H65.3237V53.3252ZM67.8795 52.898H67.6067L66.2366 55.8067L66.2584 55.848H66.7448L67.0123 55.2484H68.4508L68.7145 55.848H69.2188L69.2406 55.8067L67.8795 52.898ZM67.181 54.8677L67.738 53.6145L68.2874 54.8677H67.181ZM71.4963 54.604C71.8912 54.4869 72.1228 54.2052 72.1228 53.7922C72.1228 53.2337 71.7459 52.898 71.0383 52.898H69.8534V55.848H70.3563V54.663H70.9919L71.6235 55.848H72.1176L72.1408 55.8067L71.4963 54.604ZM70.3563 53.3252H71.0833C71.4101 53.3252 71.6094 53.5194 71.6094 53.8051C71.6094 54.0919 71.4101 54.2913 71.0833 54.2913H70.3563V53.3252ZM72.9079 55.848H73.4109V52.898H72.9079V55.848ZM75.6623 52.898H75.3897L74.0194 55.8067L74.0413 55.848H74.5277L74.7952 55.2484H76.2337L76.4973 55.848H77.0017L77.0235 55.8067L75.6623 52.898ZM74.9639 54.8677L75.5208 53.6145L76.0703 54.8677H74.9639ZM79.938 52.898H78.7352V55.848H79.938C80.872 55.848 81.4806 55.2576 81.4806 54.3685C81.4806 53.4886 80.872 52.898 79.938 52.898ZM79.929 55.4209H79.2382V53.3252H79.929C80.5556 53.3252 80.9687 53.7329 80.9687 54.3722C80.9687 55.0131 80.5556 55.4209 79.929 55.4209ZM83.4324 52.898H83.1597L81.7895 55.8067L81.8114 55.848H82.2978L82.5653 55.2484H84.0038L84.2675 55.848H84.7717L84.7936 55.8067L83.4324 52.898ZM82.7339 54.8677L83.2909 53.6145L83.8404 54.8677H82.7339Z" fill="#545453"/>
<path d="M87.4953 55.902C88.1308 55.902 88.6532 55.5841 88.6532 55.008C88.6532 54.3454 88.0664 54.191 87.5634 54.0327C87.3229 53.9503 87.1001 53.8731 87.1001 53.6789C87.1001 53.5155 87.2636 53.4152 87.4991 53.4152C87.8079 53.4152 88.0536 53.5875 88.1989 53.7382H88.2491L88.5977 53.3379V53.2877C88.3843 53.0344 87.9714 52.8439 87.49 52.8439C86.8327 52.8439 86.3785 53.2016 86.3785 53.715C86.3785 54.2643 86.8736 54.4907 87.2779 54.6181C87.6406 54.7312 87.9261 54.7634 87.9261 55.0131C87.9261 55.1854 87.7449 55.3039 87.4541 55.3039C87.1633 55.3039 86.8237 55.1263 86.6371 54.9126H86.5869L86.2383 55.3166V55.3719C86.5006 55.6936 86.969 55.902 87.4953 55.902ZM90.7401 52.898H90.3093L88.9479 55.794L88.9788 55.848H89.6697L89.8872 55.3307H91.1352L91.3486 55.848H92.0654L92.0976 55.794L90.7401 52.898ZM90.0956 54.8405L90.5227 53.8372L90.9357 54.8405H90.0956ZM94.217 51.632L93.2222 52.2677V52.3165L93.391 52.5984H93.4396L94.5296 52.126V52.076L94.2657 51.632H94.217ZM92.4502 52.898V54.5357C92.4502 55.3578 92.9997 55.902 93.8218 55.902C94.6336 55.902 95.1791 55.3578 95.1791 54.5357V52.898H94.4844V54.5731C94.4844 54.9897 94.217 55.2666 93.8218 55.2666C93.4269 55.2666 93.1592 54.9897 93.1592 54.5731V52.898H92.4502ZM97.284 52.898H95.9961V55.848H97.284C98.2375 55.848 98.837 55.2576 98.837 54.3685C98.837 53.4886 98.2375 52.898 97.284 52.898ZM97.2622 55.2666H96.7039V53.4783H97.2622C97.7704 53.4783 98.1153 53.8153 98.1153 54.3722C98.1153 54.9308 97.7704 55.2666 97.2622 55.2666ZM101.679 53.4783V52.898H99.5278V55.848H101.688V55.2666H100.236V54.645H101.352V54.0919H100.236V53.4783H101.679Z" fill="#3C3C3B"/>
</g>
<defs>
<linearGradient id="paint0_linear_79_574" x1="19.0104" y1="17.3569" x2="36.9324" y2="17.3569" gradientUnits="userSpaceOnUse">
<stop stop-color="#F0DDB7"/>
<stop offset="0.51" stop-color="#DDB866"/>
<stop offset="0.523809" stop-color="#DDB866"/>
<stop offset="1" stop-color="#F0DDB7"/>
</linearGradient>
<linearGradient id="paint1_linear_79_574" x1="19.7874" y1="18.5443" x2="35.8969" y2="18.5443" gradientUnits="userSpaceOnUse">
<stop stop-color="#CDAB5D"/>
<stop offset="0.51" stop-color="#BF9A36"/>
<stop offset="0.523809" stop-color="#BF9A36"/>
<stop offset="1" stop-color="#CDAB5D"/>
</linearGradient>
<linearGradient id="paint2_linear_79_574" x1="19.4526" y1="20.9374" x2="36.4101" y2="20.9374" gradientUnits="userSpaceOnUse">
<stop stop-color="#E3C68C"/>
<stop offset="0.51" stop-color="#DFBC6F"/>
<stop offset="0.523809" stop-color="#DFBC6F"/>
<stop offset="1" stop-color="#E3C68C"/>
</linearGradient>
<radialGradient id="paint3_radial_79_574" cx="0" cy="0" r="1" gradientUnits="userSpaceOnUse" gradientTransform="translate(28.0015 38.7371) scale(15.0741 14.8642)">
<stop stop-color="#009E5E"/>
<stop offset="1" stop-color="#00813E"/>
</radialGradient>
<radialGradient id="paint4_radial_79_574" cx="0" cy="0" r="1" gradientUnits="userSpaceOnUse" gradientTransform="translate(25.216 35.5905) scale(10.7093 10.7276)">
<stop stop-color="#E7F2E5"/>
<stop offset="1" stop-color="#6FC6EF"/>
</radialGradient>
<linearGradient id="paint5_linear_79_574" x1="19.2113" y1="41.7035" x2="34.8308" y2="41.7035" gradientUnits="userSpaceOnUse">
<stop stop-color="white"/>
<stop offset="0.263623" stop-color="white"/>
<stop offset="1" stop-color="#FAD8A9"/>
</linearGradient>
<linearGradient id="paint6_linear_79_574" x1="19.8573" y1="41.7911" x2="28.3282" y2="41.7911" gradientUnits="userSpaceOnUse">
<stop stop-color="#00A8B2"/>
<stop offset="0.263623" stop-color="#00A8B2"/>
<stop offset="1" stop-color="#6AC0C7"/>
</linearGradient>
<linearGradient id="paint7_linear_79_574" x1="31.7888" y1="31.8476" x2="31.7888" y2="36.7322" gradientUnits="userSpaceOnUse">
<stop stop-color="#0D9E6C"/>
<stop offset="0.263623" stop-color="#0D9E6C"/>
<stop offset="1" stop-color="#007B45"/>
</linearGradient>
<linearGradient id="paint8_linear_79_574" x1="26.9759" y1="40.2241" x2="35.9913" y2="40.2241" gradientUnits="userSpaceOnUse">
<stop stop-color="#ECBC8F"/>
<stop offset="0.263623" stop-color="#ECBC8F"/>
<stop offset="1" stop-color="#D39557"/>
</linearGradient>
<linearGradient id="paint9_linear_79_574" x1="33.6938" y1="34.5855" x2="33.6938" y2="36.7788" gradientUnits="userSpaceOnUse">
<stop stop-color="#0D9E6C"/>
<stop offset="0.263623" stop-color="#0D9E6C"/>
<stop offset="1" stop-color="#007B45"/>
</linearGradient>
<linearGradient id="paint10_linear_79_574" x1="23.1503" y1="34.8458" x2="25.5228" y2="34.8458" gradientUnits="userSpaceOnUse">
<stop stop-color="#E2E0E0"/>
<stop offset="0.263623" stop-color="#E2E0E0"/>
<stop offset="1" stop-color="#FCFDFF"/>
</linearGradient>
<linearGradient id="paint11_linear_79_574" x1="23.7546" y1="31.7116" x2="24.9602" y2="31.7116" gradientUnits="userSpaceOnUse">
<stop stop-color="#E2E0E0"/>
<stop offset="0.263623" stop-color="#E2E0E0"/>
<stop offset="1" stop-color="#FCFDFF"/>
</linearGradient>
</defs>
</svg>
